M48
;Layer_Color=9474304
;FILE_FORMAT=2:4
INCH,LZ
;TYPE=PLATED
T1F00S00C0.0280
T2F00S00C0.0315
T3F00S00C0.0600
;TYPE=NON_PLATED
T4F00S00C0.0600
%
T01
X00875Y00155
X01385Y00235
X0141Y00085
X01375Y00345
X0101Y0074
Y0082
X00895Y01375
X0146Y011
X00245Y00835
X0028Y00465
T02
X003856Y00155
X004644
X010163
X01095
X011737
X0146Y003463
Y00425
Y005037
X014608Y008956
Y009744
T03
X000591Y000591
X015159
Y015159
X000591
T04
X004764Y-020976
M30
