G04*
G04 #@! TF.GenerationSoftware,Altium Limited,Altium Designer,22.1.2 (22)*
G04*
G04 Layer_Physical_Order=1*
G04 Layer_Color=255*
%FSLAX24Y24*%
%MOIN*%
G70*
G04*
G04 #@! TF.SameCoordinates,7AB658FE-4F4A-440D-9AF7-89D71A904C7E*
G04*
G04*
G04 #@! TF.FilePolarity,Positive*
G04*
G01*
G75*
%ADD11C,0.0100*%
%ADD13C,0.0060*%
%ADD16R,0.0500X0.0500*%
%ADD17R,0.1260X0.0800*%
%ADD18R,0.0800X0.1260*%
%ADD19O,0.0630X0.0177*%
%ADD20R,0.0500X0.0500*%
%ADD31R,0.0591X0.0591*%
%ADD32C,0.0591*%
%ADD33C,0.0600*%
%ADD34R,0.0591X0.0591*%
%ADD35C,0.0500*%
D11*
X11044Y1644D02*
Y1844D01*
X13650Y4450D02*
Y13500D01*
X11044Y1844D02*
X13650Y4450D01*
X10950Y1550D02*
X11044Y1644D01*
X13350Y5450D02*
Y13200D01*
X4800Y2650D02*
X10550D01*
X13350Y5450D01*
X4050Y3400D02*
X4800Y2650D01*
X14200Y4250D02*
X14600D01*
X11737Y1550D02*
Y2137D01*
X13900Y4300D01*
X13750Y3450D02*
Y3800D01*
X14200Y4250D01*
X13900Y4300D02*
Y14150D01*
X14600Y5037D02*
X15500Y4137D01*
Y1750D02*
Y4137D01*
X14600Y850D02*
X15500Y1750D01*
X14100Y850D02*
X14600D01*
Y9744D02*
Y11000D01*
X9300Y8350D02*
X9842D01*
X8350D02*
X9300D01*
X1440Y4650D02*
X2800D01*
X1400Y4610D02*
X1440Y4650D01*
X2950Y1550D02*
X3856D01*
X1178Y2072D02*
X2428D01*
X2950Y1550D01*
X365Y2885D02*
X1178Y2072D01*
X365Y2885D02*
Y7006D01*
X7626Y7000D02*
X8576Y6050D01*
X12267D01*
X12750Y6533D01*
Y12450D01*
X12600Y5800D02*
X13050Y6250D01*
X8100Y5800D02*
X12600D01*
X13050Y6250D02*
Y12850D01*
X13200Y14850D02*
X13900Y14150D01*
X12500Y14650D02*
X13650Y13500D01*
X12500Y14050D02*
X13350Y13200D01*
X12600Y13300D02*
X13050Y12850D01*
X12200Y13000D02*
X12750Y12450D01*
X5850Y3250D02*
Y4350D01*
X5122Y4618D02*
X5582D01*
X5090Y4650D02*
X5122Y4618D01*
X5582D02*
X5850Y4350D01*
X7050Y4650D02*
X7610D01*
X6750Y4350D02*
X7050Y4650D01*
X6750Y5510D02*
X7480Y4780D01*
X6750Y3250D02*
Y4350D01*
Y7050D02*
X6950Y7250D01*
X6750Y5510D02*
Y7050D01*
X14155Y9298D02*
X14600Y9744D01*
X14155Y7513D02*
X14600Y7068D01*
X14155Y7513D02*
Y9298D01*
X14600Y5037D02*
Y7068D01*
X4050Y3400D02*
Y6115D01*
X600Y14650D02*
X2950D01*
X300Y11750D02*
Y14350D01*
Y11750D02*
X610Y11440D01*
X300Y14350D02*
X600Y14650D01*
X2950D02*
X3350Y15050D01*
X13950Y15050D01*
X4990Y11500D02*
Y11641D01*
X1350Y13910D02*
X2540D01*
X4990Y11500D02*
Y11600D01*
Y10348D02*
Y11500D01*
X4740Y11891D02*
X4990Y11641D01*
X2540Y13910D02*
X4559Y11891D01*
X4740D01*
X4990Y11600D02*
X5090D01*
X15150Y9200D02*
Y13850D01*
X13950Y15050D02*
X15150Y13850D01*
X14972Y9022D02*
X15150Y9200D01*
X10200Y14850D02*
X13200D01*
X9850Y14500D02*
X10200Y14850D01*
X10500Y14650D02*
X12500D01*
X10250Y14400D02*
X10500Y14650D01*
X9300Y7450D02*
X9350Y7400D01*
X10100D01*
X8350Y7450D02*
X9300D01*
X9842Y8350D02*
X9992Y8200D01*
X10100D01*
X11100Y1000D02*
X11650Y1550D01*
X5194Y1000D02*
X11100D01*
X4644Y1550D02*
X5194Y1000D01*
X13887Y2750D02*
X14600Y3463D01*
X13850Y2350D02*
X13887Y2387D01*
Y2750D01*
X1400Y9300D02*
X1500Y9400D01*
X4150D02*
X4800Y8750D01*
X1500Y9400D02*
X4150D01*
X7150Y7250D02*
X7400Y7500D01*
X6950Y7250D02*
X7150D01*
X7194Y7500D02*
X7200D01*
X7204D02*
X7400D01*
X6850Y7500D02*
X7200D01*
X5850Y6500D02*
X6850Y7500D01*
X2594Y7050D02*
X4550D01*
X4750Y7250D02*
X5669D01*
X4550Y7050D02*
X4750Y7250D01*
X14608Y8956D02*
X14673Y9022D01*
X14972D01*
X365Y7006D02*
X689Y7330D01*
X7560Y13750D02*
X8950D01*
X5406Y8500D02*
X6456D01*
X5180D02*
X5406D01*
X4715Y10073D02*
X4990Y10348D01*
X4715Y9239D02*
Y10073D01*
X5180Y10030D02*
X5750Y10600D01*
X7350D01*
X5180Y9500D02*
Y10030D01*
X4715Y9239D02*
X4954Y9000D01*
X5180D01*
X7350Y10600D02*
X7610Y10860D01*
X4800Y8750D02*
X6150D01*
X11037Y8325D02*
X11775D01*
X10575D02*
X11037D01*
X11500Y7862D01*
Y6780D02*
Y7862D01*
X7400Y9000D02*
X9900D01*
X10575Y8325D01*
X8750Y1550D02*
X10163D01*
X2450Y8350D02*
X3150D01*
X5180Y7500D02*
X5406D01*
X5645Y7739D01*
X5406Y8500D02*
X5645Y8261D01*
Y7739D02*
Y8261D01*
X2314Y7330D02*
X2594Y7050D01*
X689Y7330D02*
X2314D01*
X6150Y8750D02*
X6900Y9500D01*
X7400D01*
X7626D01*
X6456Y8500D02*
X6706Y8750D01*
X6919Y8500D02*
X7400D01*
X6706Y8750D02*
X7950D01*
X5669Y7250D02*
X6919Y8500D01*
X7950Y8750D02*
X8350Y8350D01*
X7800Y8000D02*
X8350Y7450D01*
X7400Y8000D02*
X7800D01*
X4100Y7450D02*
X4883D01*
X4933Y7500D01*
X5180D01*
X3150Y7450D02*
X4100D01*
X3150Y8350D02*
X4100D01*
X4604D01*
X4954Y8000D01*
X5180D01*
X10650Y13300D02*
X12600D01*
X11590Y14050D02*
X12500D01*
X10500Y13000D02*
X12200D01*
X11500Y13960D02*
X11590Y14050D01*
X10250Y13700D02*
Y14400D01*
Y13700D02*
X10650Y13300D01*
X9850Y13650D02*
Y14500D01*
Y13650D02*
X10500Y13000D01*
X11650Y1550D02*
X11737D01*
X5040Y12910D02*
X5300Y12650D01*
X12000D01*
X12500Y12150D01*
X11775Y8325D02*
X12500Y9050D01*
Y12150D01*
X7400Y7000D02*
X7626D01*
X7400Y6500D02*
X8100Y5800D01*
X5180Y6500D02*
X5850D01*
X7826Y9300D02*
X11500D01*
X7626Y9500D02*
X7826Y9300D01*
X5040Y12910D02*
Y13750D01*
X7610Y10860D02*
Y11600D01*
X4954Y7000D02*
X5180D01*
X7610Y11600D02*
X7770Y11440D01*
X11500D01*
X4715Y6761D02*
X4954Y7000D01*
X1400Y6780D02*
X4715D01*
X4050Y6115D02*
X4715Y6780D01*
Y6102D02*
Y6761D01*
X610Y11440D02*
X1400D01*
X4990Y11500D02*
X5090Y11600D01*
X7259Y11020D02*
X7260D01*
X5090Y4650D02*
Y5727D01*
X4715Y6102D02*
X5090Y5727D01*
X-900Y15748D02*
X-700Y15148D01*
X-1100D02*
X-900Y15748D01*
X-1100Y600D02*
X-900Y0D01*
X-700Y600D01*
X-900Y9660D02*
Y15748D01*
Y0D02*
Y6640D01*
X-1000Y15748D02*
X-170D01*
X-1000Y0D02*
X-170D01*
X-20Y-850D02*
X580Y-650D01*
X-20Y-850D02*
X580Y-1050D01*
X15128D02*
X15728Y-850D01*
X15128Y-650D02*
X15728Y-850D01*
X-20D02*
X6340D01*
X9360D02*
X15728D01*
X-20Y-950D02*
Y-150D01*
X15728Y-950D02*
Y-150D01*
D13*
X-600Y7100D02*
X-1200D01*
X-900Y6800D01*
Y7200D01*
X-1100Y7400D02*
X-1200Y7500D01*
Y7700D01*
X-1100Y7800D01*
X-700D01*
X-600Y7700D01*
Y7500D01*
X-700Y7400D01*
X-1100D01*
X-600Y8000D02*
X-700D01*
Y8100D01*
X-600D01*
Y8000D01*
X-1100Y8500D02*
X-1200Y8600D01*
Y8800D01*
X-1100Y8900D01*
X-700D01*
X-600Y8800D01*
Y8600D01*
X-700Y8500D01*
X-1100D01*
Y9100D02*
X-1200Y9200D01*
Y9400D01*
X-1100Y9500D01*
X-700D01*
X-600Y9400D01*
Y9200D01*
X-700Y9100D01*
X-1100D01*
X6800Y-1200D02*
Y-600D01*
X6500Y-900D01*
X6900D01*
X7100Y-700D02*
X7200Y-600D01*
X7400D01*
X7500Y-700D01*
Y-1100D01*
X7400Y-1200D01*
X7200D01*
X7100Y-1100D01*
Y-700D01*
X7700Y-1200D02*
Y-1100D01*
X7800D01*
Y-1200D01*
X7700D01*
X8200Y-700D02*
X8300Y-600D01*
X8500D01*
X8600Y-700D01*
Y-1100D01*
X8500Y-1200D01*
X8300D01*
X8200Y-1100D01*
Y-700D01*
X8800D02*
X8900Y-600D01*
X9100D01*
X9200Y-700D01*
Y-1100D01*
X9100Y-1200D01*
X8900D01*
X8800Y-1100D01*
Y-700D01*
D16*
X5850Y3250D02*
D03*
X6750D02*
D03*
D17*
X1400Y2090D02*
D03*
X1400Y4610D02*
D03*
X1400Y13960D02*
D03*
X1400Y11440D02*
D03*
X11500Y13960D02*
D03*
X11500Y11440D02*
D03*
X11500Y6780D02*
D03*
X11500Y9300D02*
D03*
X1400Y6780D02*
D03*
X1400Y9300D02*
D03*
D18*
X5090Y4650D02*
D03*
X7610Y4650D02*
D03*
X7560Y13750D02*
D03*
X5040Y13750D02*
D03*
X7610Y11600D02*
D03*
X5090Y11600D02*
D03*
D19*
X5180Y9500D02*
D03*
Y9000D02*
D03*
Y8500D02*
D03*
Y8000D02*
D03*
Y7500D02*
D03*
Y7000D02*
D03*
Y6500D02*
D03*
X7400Y6500D02*
D03*
Y9500D02*
D03*
Y9000D02*
D03*
Y8500D02*
D03*
Y8000D02*
D03*
Y7500D02*
D03*
Y7000D02*
D03*
D20*
X9300Y8350D02*
D03*
Y7450D02*
D03*
X8350Y8350D02*
D03*
Y7450D02*
D03*
X4100D02*
D03*
Y8350D02*
D03*
X3150Y7450D02*
D03*
Y8350D02*
D03*
D31*
X14600Y5037D02*
D03*
X14608Y9744D02*
D03*
D32*
X14600Y4250D02*
D03*
Y3463D02*
D03*
X14608Y8956D02*
D03*
X11737Y1550D02*
D03*
X10950D02*
D03*
X4644D02*
D03*
D33*
X15159Y591D02*
D03*
X591Y15159D02*
D03*
X15159D02*
D03*
X591Y591D02*
D03*
X4764Y-20976D02*
D03*
D34*
X10163Y1550D02*
D03*
X3856D02*
D03*
D35*
X13750Y3450D02*
D03*
X14100Y850D02*
D03*
X2800Y4650D02*
D03*
X10100Y7400D02*
D03*
Y8200D02*
D03*
X13850Y2350D02*
D03*
X8950Y13750D02*
D03*
X14600Y11000D02*
D03*
X8750Y1550D02*
D03*
X2450Y8350D02*
D03*
M02*
