G04*
G04 #@! TF.GenerationSoftware,Altium Limited,Altium Designer,22.1.2 (22)*
G04*
G04 Layer_Color=128*
%FSLAX24Y24*%
%MOIN*%
G70*
G04*
G04 #@! TF.SameCoordinates,7AB658FE-4F4A-440D-9AF7-89D71A904C7E*
G04*
G04*
G04 #@! TF.FilePolarity,Positive*
G04*
G01*
G75*
%ADD11C,0.0100*%
%ADD13C,0.0060*%
%ADD36C,0.0020*%
D11*
X-900Y15748D02*
X-700Y15148D01*
X-1100D02*
X-900Y15748D01*
X-1100Y600D02*
X-900Y0D01*
X-700Y600D01*
X-900Y9660D02*
Y15748D01*
Y0D02*
Y6640D01*
X-1000Y15748D02*
X-170D01*
X-1000Y0D02*
X-170D01*
X-20Y-850D02*
X580Y-650D01*
X-20Y-850D02*
X580Y-1050D01*
X15128D02*
X15728Y-850D01*
X15128Y-650D02*
X15728Y-850D01*
X-20D02*
X6340D01*
X9360D02*
X15728D01*
X-20Y-950D02*
Y-150D01*
X15728Y-950D02*
Y-150D01*
D13*
X-600Y7100D02*
X-1200D01*
X-900Y6800D01*
Y7200D01*
X-1100Y7400D02*
X-1200Y7500D01*
Y7700D01*
X-1100Y7800D01*
X-700D01*
X-600Y7700D01*
Y7500D01*
X-700Y7400D01*
X-1100D01*
X-600Y8000D02*
X-700D01*
Y8100D01*
X-600D01*
Y8000D01*
X-1100Y8500D02*
X-1200Y8600D01*
Y8800D01*
X-1100Y8900D01*
X-700D01*
X-600Y8800D01*
Y8600D01*
X-700Y8500D01*
X-1100D01*
Y9100D02*
X-1200Y9200D01*
Y9400D01*
X-1100Y9500D01*
X-700D01*
X-600Y9400D01*
Y9200D01*
X-700Y9100D01*
X-1100D01*
X6800Y-1200D02*
Y-600D01*
X6500Y-900D01*
X6900D01*
X7100Y-700D02*
X7200Y-600D01*
X7400D01*
X7500Y-700D01*
Y-1100D01*
X7400Y-1200D01*
X7200D01*
X7100Y-1100D01*
Y-700D01*
X7700Y-1200D02*
Y-1100D01*
X7800D01*
Y-1200D01*
X7700D01*
X8200Y-700D02*
X8300Y-600D01*
X8500D01*
X8600Y-700D01*
Y-1100D01*
X8500Y-1200D01*
X8300D01*
X8200Y-1100D01*
Y-700D01*
X8800D02*
X8900Y-600D01*
X9100D01*
X9200Y-700D01*
Y-1100D01*
X9100Y-1200D01*
X8900D01*
X8800Y-1100D01*
Y-700D01*
D36*
X14443Y5037D02*
X14757D01*
X14600Y4880D02*
Y5195D01*
X14443Y4250D02*
X14757D01*
X14600Y4093D02*
Y4407D01*
X14443Y3463D02*
X14757D01*
X14600Y3305D02*
Y3620D01*
X14859Y591D02*
X15459D01*
X15159Y291D02*
Y891D01*
X291Y15159D02*
X891D01*
X591Y14859D02*
Y15459D01*
X14859Y15159D02*
X15459D01*
X15159Y14859D02*
Y15459D01*
X291Y591D02*
X891D01*
X591Y291D02*
Y891D01*
X4464Y-20976D02*
X5064D01*
X4764Y-21276D02*
Y-20676D01*
X14450Y9744D02*
X14765D01*
X14608Y9586D02*
Y9901D01*
X14450Y8956D02*
X14765D01*
X14608Y8799D02*
Y9114D01*
X11580Y1550D02*
X11895D01*
X11737Y1393D02*
Y1707D01*
X10793Y1550D02*
X11107D01*
X10950Y1393D02*
Y1707D01*
X10005Y1550D02*
X10320D01*
X10163Y1393D02*
Y1707D01*
X3699Y1550D02*
X4014D01*
X3856Y1393D02*
Y1707D01*
X4486Y1550D02*
X4801D01*
X4644Y1393D02*
Y1707D01*
X13610Y3450D02*
X13890D01*
X13750Y3310D02*
Y3590D01*
X13960Y850D02*
X14240D01*
X14100Y710D02*
Y990D01*
X2660Y4650D02*
X2940D01*
X2800Y4510D02*
Y4790D01*
X9960Y7400D02*
X10240D01*
X10100Y7260D02*
Y7540D01*
X9960Y8200D02*
X10240D01*
X10100Y8060D02*
Y8340D01*
X13710Y2350D02*
X13990D01*
X13850Y2210D02*
Y2490D01*
X8810Y13750D02*
X9090D01*
X8950Y13610D02*
Y13890D01*
X14460Y11000D02*
X14740D01*
X14600Y10860D02*
Y11140D01*
X8610Y1550D02*
X8890D01*
X8750Y1410D02*
Y1690D01*
X2310Y8350D02*
X2590D01*
X2450Y8210D02*
Y8490D01*
M02*
