G04*
G04 #@! TF.GenerationSoftware,Altium Limited,Altium Designer,22.1.2 (22)*
G04*
G04 Layer_Color=2752767*
%FSLAX24Y24*%
%MOIN*%
G70*
G04*
G04 #@! TF.SameCoordinates,7AB658FE-4F4A-440D-9AF7-89D71A904C7E*
G04*
G04*
G04 #@! TF.FilePolarity,Positive*
G04*
G01*
G75*
%ADD11C,0.0100*%
%ADD13C,0.0060*%
%ADD36C,0.0020*%
%ADD37C,0.0027*%
D11*
X-900Y15748D02*
X-700Y15148D01*
X-1100D02*
X-900Y15748D01*
X-1100Y600D02*
X-900Y0D01*
X-700Y600D01*
X-900Y9660D02*
Y15748D01*
Y0D02*
Y6640D01*
X-1000Y15748D02*
X-170D01*
X-1000Y0D02*
X-170D01*
X-20Y-850D02*
X580Y-650D01*
X-20Y-850D02*
X580Y-1050D01*
X15128D02*
X15728Y-850D01*
X15128Y-650D02*
X15728Y-850D01*
X-20D02*
X6340D01*
X9360D02*
X15728D01*
X-20Y-950D02*
Y-150D01*
X15728Y-950D02*
Y-150D01*
D13*
X-600Y7100D02*
X-1200D01*
X-900Y6800D01*
Y7200D01*
X-1100Y7400D02*
X-1200Y7500D01*
Y7700D01*
X-1100Y7800D01*
X-700D01*
X-600Y7700D01*
Y7500D01*
X-700Y7400D01*
X-1100D01*
X-600Y8000D02*
X-700D01*
Y8100D01*
X-600D01*
Y8000D01*
X-1100Y8500D02*
X-1200Y8600D01*
Y8800D01*
X-1100Y8900D01*
X-700D01*
X-600Y8800D01*
Y8600D01*
X-700Y8500D01*
X-1100D01*
Y9100D02*
X-1200Y9200D01*
Y9400D01*
X-1100Y9500D01*
X-700D01*
X-600Y9400D01*
Y9200D01*
X-700Y9100D01*
X-1100D01*
X6800Y-1200D02*
Y-600D01*
X6500Y-900D01*
X6900D01*
X7100Y-700D02*
X7200Y-600D01*
X7400D01*
X7500Y-700D01*
Y-1100D01*
X7400Y-1200D01*
X7200D01*
X7100Y-1100D01*
Y-700D01*
X7700Y-1200D02*
Y-1100D01*
X7800D01*
Y-1200D01*
X7700D01*
X8200Y-700D02*
X8300Y-600D01*
X8500D01*
X8600Y-700D01*
Y-1100D01*
X8500Y-1200D01*
X8300D01*
X8200Y-1100D01*
Y-700D01*
X8800D02*
X8900Y-600D01*
X9100D01*
X9200Y-700D01*
Y-1100D01*
X9100Y-1200D01*
X8900D01*
X8800Y-1100D01*
Y-700D01*
D36*
X14520Y4957D02*
Y5117D01*
X14680D01*
Y4957D01*
X14520D01*
Y4170D02*
Y4330D01*
X14680D01*
Y4170D01*
X14520D01*
Y3383D02*
Y3543D01*
X14680D01*
Y3383D01*
X14520D01*
X4764Y-21056D02*
X4684Y-20896D01*
X4844D01*
X4764Y-21056D01*
X14528Y9664D02*
Y9824D01*
X14688D01*
Y9664D01*
X14528D01*
Y8876D02*
Y9036D01*
X14688D01*
Y8876D01*
X14528D01*
X11657Y1470D02*
Y1630D01*
X11817D01*
Y1470D01*
X11657D01*
X10870D02*
Y1630D01*
X11030D01*
Y1470D01*
X10870D01*
X10083D02*
Y1630D01*
X10243D01*
Y1470D01*
X10083D01*
X3776D02*
Y1630D01*
X3936D01*
Y1470D01*
X3776D01*
X4564D02*
Y1630D01*
X4724D01*
Y1470D01*
X4564D01*
X13750Y3370D02*
X13790Y3410D01*
X13830D01*
X13790Y3450D01*
X13830Y3490D01*
X13790D01*
X13750Y3530D01*
X13710Y3490D01*
X13670D01*
X13710Y3450D01*
X13670Y3410D01*
X13710D01*
X13750Y3370D01*
X14100Y770D02*
X14140Y810D01*
X14180D01*
X14140Y850D01*
X14180Y890D01*
X14140D01*
X14100Y930D01*
X14060Y890D01*
X14020D01*
X14060Y850D01*
X14020Y810D01*
X14060D01*
X14100Y770D01*
X2800Y4570D02*
X2840Y4610D01*
X2880D01*
X2840Y4650D01*
X2880Y4690D01*
X2840D01*
X2800Y4730D01*
X2760Y4690D01*
X2720D01*
X2760Y4650D01*
X2720Y4610D01*
X2760D01*
X2800Y4570D01*
X10100Y7320D02*
X10140Y7360D01*
X10180D01*
X10140Y7400D01*
X10180Y7440D01*
X10140D01*
X10100Y7480D01*
X10060Y7440D01*
X10020D01*
X10060Y7400D01*
X10020Y7360D01*
X10060D01*
X10100Y7320D01*
Y8120D02*
X10140Y8160D01*
X10180D01*
X10140Y8200D01*
X10180Y8240D01*
X10140D01*
X10100Y8280D01*
X10060Y8240D01*
X10020D01*
X10060Y8200D01*
X10020Y8160D01*
X10060D01*
X10100Y8120D01*
X13850Y2270D02*
X13890Y2310D01*
X13930D01*
X13890Y2350D01*
X13930Y2390D01*
X13890D01*
X13850Y2430D01*
X13810Y2390D01*
X13770D01*
X13810Y2350D01*
X13770Y2310D01*
X13810D01*
X13850Y2270D01*
X8950Y13670D02*
X8990Y13710D01*
X9030D01*
X8990Y13750D01*
X9030Y13790D01*
X8990D01*
X8950Y13830D01*
X8910Y13790D01*
X8870D01*
X8910Y13750D01*
X8870Y13710D01*
X8910D01*
X8950Y13670D01*
X14600Y10920D02*
X14640Y10960D01*
X14680D01*
X14640Y11000D01*
X14680Y11040D01*
X14640D01*
X14600Y11080D01*
X14560Y11040D01*
X14520D01*
X14560Y11000D01*
X14520Y10960D01*
X14560D01*
X14600Y10920D01*
X8750Y1470D02*
X8790Y1510D01*
X8830D01*
X8790Y1550D01*
X8830Y1590D01*
X8790D01*
X8750Y1630D01*
X8710Y1590D01*
X8670D01*
X8710Y1550D01*
X8670Y1510D01*
X8710D01*
X8750Y1470D01*
X2450Y8270D02*
X2490Y8310D01*
X2530D01*
X2490Y8350D01*
X2530Y8390D01*
X2490D01*
X2450Y8430D01*
X2410Y8390D01*
X2370D01*
X2410Y8350D01*
X2370Y8310D01*
X2410D01*
X2450Y8270D01*
D37*
X15239Y591D02*
G03*
X15239Y591I-80J0D01*
G01*
X671Y15159D02*
G03*
X671Y15159I-80J0D01*
G01*
X15239D02*
G03*
X15239Y15159I-80J0D01*
G01*
X671Y591D02*
G03*
X671Y591I-80J0D01*
G01*
M02*
